<svg viewBox="0 0 400 335" xmlns="http://www.w3.org/2000/svg" role="img" aria-labelledby="hcs-title hcs-desc">
<title id="hcs-title">1つのHostが複数のServerを持つときの構成</title>
<desc id="hcs-desc">MCP HostはLLMと、Serverごとに1つずつのMCP Clientを持つ。Client AはファイルシステムをServer A経由で、Client BはGitHubなどの外部APIをServer B経由で扱う。ClientとServerは1対1の専用接続で結ばれる。</desc>
<style>text{font-family:system-ui,-apple-system,"Segoe UI",sans-serif;}</style>
<rect x="0" y="0" width="400" height="335" rx="8" fill="#fcfcfb"/>
<rect x="12" y="16" width="376" height="31" rx="6" fill="#f0efec" stroke="#c3c2b7" stroke-width="1"/>
<text x="200" y="36" font-size="12" text-anchor="middle" fill="#0b0b0b">ユーザー</text>
<rect x="12" y="73" width="182" height="46" rx="6" fill="#eaf1fb" stroke="#2a78d6" stroke-width="1"/>
<text x="103" y="93" font-size="12" font-weight="600" text-anchor="middle" fill="#0b0b0b">MCP Host</text>
<text x="103" y="108" font-size="12" font-weight="600" text-anchor="middle" fill="#0b0b0b">AIアプリケーション</text>
<rect x="206" y="80.5" width="182" height="31" rx="6" fill="#fcfcfb" stroke="#c3c2b7" stroke-width="1"/>
<text x="297" y="100.5" font-size="12" text-anchor="middle" fill="#52514e">LLM</text>
<rect x="12" y="145" width="182" height="31" rx="6" fill="#f0efec" stroke="#c3c2b7" stroke-width="1"/>
<text x="103" y="165" font-size="12" text-anchor="middle" fill="#0b0b0b">MCP Client A</text>
<rect x="206" y="145" width="182" height="31" rx="6" fill="#f0efec" stroke="#c3c2b7" stroke-width="1"/>
<text x="297" y="165" font-size="12" text-anchor="middle" fill="#0b0b0b">MCP Client B</text>
<rect x="12" y="216" width="182" height="46" rx="6" fill="#f0efec" stroke="#c3c2b7" stroke-width="1"/>
<text x="103" y="236" font-size="12" text-anchor="middle" fill="#0b0b0b">MCP Server A</text>
<text x="103" y="251" font-size="12" text-anchor="middle" fill="#0b0b0b">ファイル操作</text>
<rect x="206" y="216" width="182" height="46" rx="6" fill="#f0efec" stroke="#c3c2b7" stroke-width="1"/>
<text x="297" y="236" font-size="12" text-anchor="middle" fill="#0b0b0b">MCP Server B</text>
<text x="297" y="251" font-size="12" text-anchor="middle" fill="#0b0b0b">Issue操作</text>
<rect x="12" y="288" width="182" height="31" rx="6" fill="#f0efec" stroke="#c3c2b7" stroke-width="1"/>
<text x="103" y="308" font-size="12" text-anchor="middle" fill="#0b0b0b">ファイルシステム</text>
<rect x="206" y="288" width="182" height="31" rx="6" fill="#f0efec" stroke="#c3c2b7" stroke-width="1"/>
<text x="297" y="308" font-size="12" text-anchor="middle" fill="#0b0b0b">外部API</text>
<path d="M200,47 L200,53 Q200,60 193,60 L110,60 Q103,60 103,67 L103,67" stroke="#c3c2b7" stroke-width="1.3" fill="none" stroke-linejoin="round"/>
<path d="M99.4,67 L106.6,67 L103,73 Z" fill="#c3c2b7"/>
<path d="M194,96 L200,96" stroke="#898781" stroke-width="1.3" fill="none" stroke-linejoin="round" stroke-dasharray="4 3"/>
<path d="M200,92.4 L200,99.6 L206,96 Z" fill="#898781"/>
<path d="M103,119 L103,139" stroke="#c3c2b7" stroke-width="1.3" fill="none" stroke-linejoin="round"/>
<path d="M99.4,139 L106.6,139 L103,145 Z" fill="#c3c2b7"/>
<path d="M103,119 L103,125 Q103,132 110,132 L290,132 Q297,132 297,139 L297,139" stroke="#c3c2b7" stroke-width="1.3" fill="none" stroke-linejoin="round"/>
<path d="M293.4,139 L300.6,139 L297,145 Z" fill="#c3c2b7"/>
<path d="M103,182 L103,210" stroke="#c3c2b7" stroke-width="1.3" fill="none" stroke-linejoin="round"/>
<path d="M99.4,210 L106.6,210 L103,216 Z" fill="#c3c2b7"/>
<path d="M99.4,182 L106.6,182 L103,176 Z" fill="#c3c2b7"/>
<rect x="74" y="187" width="58" height="13" rx="3" fill="#fcfcfb" opacity="0.95"/>
<text x="103" y="197" font-size="10" text-anchor="middle" fill="#52514e">専用の接続</text>
<path d="M297,182 L297,210" stroke="#c3c2b7" stroke-width="1.3" fill="none" stroke-linejoin="round"/>
<path d="M293.4,210 L300.6,210 L297,216 Z" fill="#c3c2b7"/>
<path d="M293.4,182 L300.6,182 L297,176 Z" fill="#c3c2b7"/>
<rect x="268" y="187" width="58" height="13" rx="3" fill="#fcfcfb" opacity="0.95"/>
<text x="297" y="197" font-size="10" text-anchor="middle" fill="#52514e">専用の接続</text>
<path d="M103,262 L103,282" stroke="#c3c2b7" stroke-width="1.3" fill="none" stroke-linejoin="round"/>
<path d="M99.4,282 L106.6,282 L103,288 Z" fill="#c3c2b7"/>
<path d="M297,262 L297,282" stroke="#c3c2b7" stroke-width="1.3" fill="none" stroke-linejoin="round"/>
<path d="M293.4,282 L300.6,282 L297,288 Z" fill="#c3c2b7"/>
</svg>
